<svg width="64" height="24" viewBox="0 0 64 24" fill="none" xmlns="http://www.w3.org/2000/svg"> <path d="M14.7679 12.4709C14.739 16.5541 11.4212 19.8107 7.32415 19.7781C3.32355 19.7435 0.084873 16.5426 0 12.5651V0H0.117665C2.48446 0.0499834 4.35938 2.00703 4.35938 4.36778V12.3651C4.35938 12.6823 4.40954 12.9899 4.5002 13.2802C4.88598 14.5125 6.02212 15.4218 7.37623 15.4333C9.06019 15.4391 10.4317 14.078 10.4201 12.3997C10.4143 10.8541 9.21643 9.59489 7.71187 9.41611C7.5942 9.39881 7.47075 9.39304 7.3473 9.39304C6.514 9.39304 5.83695 8.71826 5.83695 7.88777V5.07716H5.8871C6.134 5.07139 7.26435 5.04833 7.39166 5.04833C11.4829 5.05986 14.8007 8.38376 14.7679 12.4728V12.4709Z" fill="#401DB7"/> <path d="M7.38721 13.9514C6.52498 13.9514 5.83057 13.2594 5.83057 12.4V10.8486H7.38721C8.24366 10.8486 8.94386 11.5407 8.94386 12.4C8.94386 13.2536 8.24366 13.9514 7.38721 13.9514Z" fill="#401DB7"/> <mask id="mask0_14964_227138" style="mask-type:alpha" maskUnits="userSpaceOnUse" x="0" y="0" width="15" height="20"> <path d="M0.117188 0C2.48399 0.0499834 4.35938 2.00741 4.35938 4.36816V12.3652C4.35939 12.6824 4.40935 12.99 4.5 13.2803C4.88576 14.5125 6.02198 15.4219 7.37598 15.4336C9.05993 15.4394 10.4315 14.0777 10.4199 12.3994C10.414 10.8539 9.21636 9.59481 7.71191 9.41602C7.59436 9.39873 7.47099 9.39259 7.34766 9.39258C6.51436 9.39258 5.83691 8.71819 5.83691 7.8877V5.07715H5.88672C6.13358 5.07138 7.26399 5.04786 7.3916 5.04785C11.4828 5.05939 14.8003 8.38369 14.7676 12.4727L14.7559 12.8516C14.5309 16.7546 11.2931 19.8099 7.32422 19.7783C3.32374 19.7437 0.0850638 16.5428 0 12.5654V0H0.117188ZM7.3877 10.8486C8.24392 10.8488 8.94422 11.5403 8.94434 12.3994C8.94434 13.2529 8.24399 13.951 7.3877 13.9512C6.52546 13.9512 5.83105 13.2587 5.83105 12.3994V10.8486H7.3877Z" fill="#401DB7"/> </mask> <g mask="url(#mask0_14964_227138)"> <g filter="url(#filter0_f_14964_227138)"> <ellipse cx="10.4059" cy="4.57755" rx="6.59486" ry="6.57267" fill="#EA3A96"/> </g> <g filter="url(#filter1_f_14964_227138)"> <ellipse cx="1.10365" cy="15.9877" rx="6.59486" ry="6.57267" fill="#76DDE3"/> </g> <rect x="-1.48535" y="6.24121" width="6.68202" height="8.41422" fill="url(#paint0_linear_14964_227138)"/> <g filter="url(#filter2_f_14964_227138)"> <ellipse cx="1.40931" cy="3.52579" rx="6.59486" ry="6.57267" fill="#EA3587"/> </g> </g> <g opacity="0.33"> <path style="mix-blend-mode:multiply" d="M12.7246 13.604C12.7246 15.9187 10.8439 17.793 8.5215 17.793C6.19907 17.793 4.31836 15.9187 4.31836 13.604V9.41504H4.35115V12.366C4.35115 14.0327 5.6879 15.4227 7.368 15.4342C9.05196 15.44 10.4234 14.0789 10.4119 12.4006C10.4061 10.8549 9.2082 9.59575 7.70363 9.41696H8.5215C10.8439 9.42273 12.7246 11.2971 12.7246 13.606V13.604Z" fill="url(#paint1_linear_14964_227138)"/> </g> <g opacity="0.33"> <path style="mix-blend-mode:multiply" d="M4.35939 12.372C4.35939 12.6892 4.40955 12.9968 4.50021 13.2871L2.78732 12.5392C2.78732 12.5392 2.9995 8.579 2.78732 4.75334C2.57513 0.933452 0.117676 0.00683594 0.117676 0.00683594C2.48447 0.0568194 4.35939 2.01386 4.35939 4.37462V12.372Z" fill="url(#paint2_linear_14964_227138)"/> </g> <defs> <filter id="filter0_f_14964_227138" x="-1.05422" y="-6.86037" width="22.9204" height="22.876" filterUnits="userSpaceOnUse" color-interpolation-filters="sRGB"> <feFlood flood-opacity="0" result="BackgroundImageFix"/> <feBlend mode="normal" in="SourceGraphic" in2="BackgroundImageFix" result="shape"/> <feGaussianBlur stdDeviation="2.43263" result="effect1_foregroundBlur_14964_227138"/> </filter> <filter id="filter1_f_14964_227138" x="-9.23371" y="5.67254" width="20.6749" height="20.6305" filterUnits="userSpaceOnUse" color-interpolation-filters="sRGB"> <feFlood flood-opacity="0" result="BackgroundImageFix"/> <feBlend mode="normal" in="SourceGraphic" in2="BackgroundImageFix" result="shape"/> <feGaussianBlur stdDeviation="1.87125" result="effect1_foregroundBlur_14964_227138"/> </filter> <filter id="filter2_f_14964_227138" x="-8.92805" y="-6.78938" width="20.6749" height="20.6305" filterUnits="userSpaceOnUse" color-interpolation-filters="sRGB"> <feFlood flood-opacity="0" result="BackgroundImageFix"/> <feBlend mode="normal" in="SourceGraphic" in2="BackgroundImageFix" result="shape"/> <feGaussianBlur stdDeviation="1.87125" result="effect1_foregroundBlur_14964_227138"/> </filter> <linearGradient id="paint0_linear_14964_227138" x1="1.85566" y1="6.24121" x2="1.85566" y2="14.6554" gradientUnits="userSpaceOnUse"> <stop stop-color="#EA3587"/> <stop offset="1" stop-color="#76DDE3"/> </linearGradient> <linearGradient id="paint1_linear_14964_227138" x1="4.31836" y1="13.604" x2="12.7246" y2="13.604" gradientUnits="userSpaceOnUse"> <stop stop-color="white"/> <stop offset="1"/> </linearGradient> <linearGradient id="paint2_linear_14964_227138" x1="3.54514" y1="8.05247" x2="0.960113" y2="-1.85994" gradientUnits="userSpaceOnUse"> <stop stop-color="white"/> <stop offset="1"/> </linearGradient> </defs> </svg>
